  <!-- Sprite -->
<svg style="display: none;" xmlns="http://www.w3.org/2000/svg">

    <!-- logo -->
    <symbol id="logo" viewBox="0 0 115 64">
        <g style="mix-blend-mode:screen">
            <path d="M37.5092 0.0909119V35H29.6001L16.9865 16.6591H16.782V35H7.30469V0.0909119H15.3501L27.7592 18.3636H28.032V0.0909119H37.5092Z"/>
            <path d="M55.424 35H41.9922V0.0909119H55.2876C58.8786 0.0909119 61.9808 0.789772 64.5945 2.1875C67.2195 3.57386 69.2422 5.57386 70.6626 8.1875C72.0945 10.7898 72.8104 13.9091 72.8104 17.5455C72.8104 21.1818 72.1001 24.3068 70.6797 26.9205C69.2592 29.5227 67.2479 31.5227 64.6456 32.9205C62.0433 34.3068 58.9695 35 55.424 35ZM51.4695 26.9545H55.0831C56.8104 26.9545 58.282 26.6761 59.4979 26.1193C60.7251 25.5625 61.657 24.6023 62.2933 23.2386C62.941 21.875 63.2649 19.9773 63.2649 17.5455C63.2649 15.1136 62.9354 13.2159 62.2763 11.8523C61.6285 10.4886 60.674 9.52841 59.4126 8.97159C58.1626 8.41477 56.6285 8.13636 54.8104 8.13636H51.4695V26.9545Z"/>
            <path d="M84.0604 35H73.8331L85.3558 0.0909119H98.3104L109.833 35H99.6058L91.9695 9.70454H91.6967L84.0604 35ZM82.1513 21.2273H101.379V28.3182H82.1513V21.2273Z"/>
        </g>
        <path d="M7.63113 62.0793C7.18184 62.3957 6.60598 62.6456 5.90355 62.8291C5.20113 63.0063 4.34051 63.0949 3.32168 63.0949C2.30918 63.0949 1.28719 63.0348 0.255703 62.9146V61.0731C1.17961 61.2819 2.10984 61.3863 3.04641 61.3863C3.98297 61.3863 4.68539 61.3357 5.15367 61.2344C5.62195 61.1269 5.99848 60.9877 6.28324 60.8168C6.80848 60.5004 7.07109 60.0891 7.07109 59.5828C7.07109 59.1905 6.96984 58.8867 6.76734 58.6716C6.44461 58.3362 5.97949 58.0293 5.37199 57.7508L2.94199 56.6402C2.10668 56.2479 1.515 55.884 1.16695 55.5486C0.420234 54.8272 0.046875 53.9919 0.046875 53.0427C0.046875 52.0682 0.470859 51.2803 1.31883 50.6791C2.24906 50.021 3.57164 49.6919 5.28656 49.6919C6.39398 49.6919 7.40648 49.7362 8.32406 49.8248V51.6378C7.5457 51.4607 6.67559 51.3721 5.71371 51.3721C4.75816 51.3721 4.06207 51.4227 3.62543 51.5239C3.19512 51.6189 2.85656 51.7423 2.60977 51.8941C2.16047 52.1726 1.93582 52.5396 1.93582 52.9952C1.93582 53.4382 2.0782 53.8052 2.36297 54.0963C2.61609 54.3431 3.07805 54.6279 3.74883 54.9506L6.24527 56.1371C7.07426 56.5295 7.65328 56.8997 7.98234 57.2477C8.31773 57.5958 8.56453 57.947 8.72273 58.3014C8.88094 58.6494 8.96004 59.0702 8.96004 59.5638C8.96004 60.0511 8.85246 60.513 8.6373 60.9497C8.42215 61.38 8.08676 61.7565 7.63113 62.0793Z"/>
        <path d="M14.6933 51.4575H10.7161V49.7869H20.569V51.4575H16.5918V63H14.6933V51.4575Z"/>
        <path d="M22.382 56.4124C22.382 55.3809 22.537 54.4475 22.8471 53.6122C23.1572 52.7769 23.5875 52.065 24.138 51.4765C25.2961 50.2488 26.799 49.635 28.6468 49.635C30.501 49.635 32.0007 50.2488 33.1461 51.4765C34.3105 52.7231 34.8927 54.3684 34.8927 56.4124C34.8927 58.4564 34.3105 60.0954 33.1461 61.3294C32.0071 62.5444 30.5073 63.1519 28.6468 63.1519C26.7927 63.1519 25.2898 62.5444 24.138 61.3294C22.9673 60.0891 22.382 58.4501 22.382 56.4124ZM24.2804 56.4029C24.2804 57.8457 24.6316 59.0386 25.3341 59.9815C26.1251 61.0319 27.2293 61.5572 28.6468 61.5572C30.0643 61.5572 31.1654 61.0319 31.9501 59.9815C32.6462 59.0512 32.9943 57.8647 32.9943 56.4219C32.9943 54.9664 32.6462 53.7673 31.9501 52.8244C31.1654 51.7612 30.0643 51.2297 28.6468 51.2297C27.223 51.2297 26.1188 51.7612 25.3341 52.8244C24.6316 53.7673 24.2804 54.9601 24.2804 56.4029Z"/>
        <path d="M46.3688 62.9241C45.7423 63.038 44.8975 63.0949 43.8343 63.0949C42.7775 63.0949 41.822 62.9494 40.9677 62.6583C40.1197 62.3672 39.3888 61.9369 38.775 61.3673C37.4588 60.146 36.8006 58.4437 36.8006 56.2605C36.8006 54.8367 37.1392 53.6027 37.8163 52.5586C38.7339 51.1474 40.1419 50.2488 42.0403 49.8628C42.6225 49.7489 43.3154 49.6919 44.1191 49.6919C44.9291 49.6919 45.5777 49.7362 46.065 49.8248V51.6378C45.622 51.4986 44.9354 51.429 44.0052 51.429C43.0813 51.429 42.2966 51.5429 41.6511 51.7707C41.0057 51.9985 40.4709 52.3244 40.047 52.7484C39.199 53.5774 38.775 54.7481 38.775 56.2605C38.775 57.7856 39.1927 58.9943 40.028 59.8866C40.9329 60.8484 42.2333 61.3294 43.9293 61.3294C44.9228 61.3294 45.7359 61.2534 46.3688 61.1016V62.9241Z"/>
        <path d="M48.7418 49.7869H50.6307V55.9758L55.7186 49.7869H58.0916L52.6716 56.1466L58.5093 63H56.1552L50.6307 56.4124V63H48.7418V49.7869Z"/>
        <path d="M74.0954 62.0793C73.6461 62.3957 73.0703 62.6456 72.3678 62.8291C71.6654 63.0063 70.8048 63.0949 69.786 63.0949C68.7735 63.0949 67.7515 63.0348 66.72 62.9146V61.0731C67.6439 61.2819 68.5741 61.3863 69.5107 61.3863C70.4473 61.3863 71.1497 61.3357 71.618 61.2344C72.0862 61.1269 72.4628 60.9877 72.7475 60.8168C73.2728 60.5004 73.5354 60.0891 73.5354 59.5828C73.5354 59.1905 73.4341 58.8867 73.2316 58.6716C72.9089 58.3362 72.4438 58.0293 71.8363 57.7508L69.4063 56.6402C68.571 56.2479 67.9793 55.884 67.6312 55.5486C66.8845 54.8272 66.5112 53.9919 66.5112 53.0427C66.5112 52.0682 66.9352 51.2803 67.7831 50.6791C68.7134 50.021 70.0359 49.6919 71.7509 49.6919C72.8583 49.6919 73.8708 49.7362 74.7884 49.8248V51.6378C74.01 51.4607 73.1399 51.3721 72.178 51.3721C71.2225 51.3721 70.5264 51.4227 70.0897 51.5239C69.6594 51.6189 69.3209 51.7423 69.0741 51.8941C68.6248 52.1726 68.4001 52.5396 68.4001 52.9952C68.4001 53.4382 68.5425 53.8052 68.8273 54.0963C69.0804 54.3431 69.5423 54.6279 70.2131 54.9506L72.7096 56.1371C73.5385 56.5295 74.1176 56.8997 74.4466 57.2477C74.782 57.5958 75.0288 57.947 75.187 58.3014C75.3452 58.6494 75.4243 59.0702 75.4243 59.5638C75.4243 60.0511 75.3168 60.513 75.1016 60.9497C74.8864 61.38 74.5511 61.7565 74.0954 62.0793Z"/>
        <path d="M77.9208 49.7869H79.8192V55.0076H86.0651V49.7869H87.9635V63H86.0651V56.6782H79.8192V63H77.9208V49.7869Z"/>
        <path d="M90.46 56.4124C90.46 55.3809 90.615 54.4475 90.9251 53.6122C91.2351 52.7769 91.6655 52.065 92.216 51.4765C93.3741 50.2488 94.877 49.635 96.7248 49.635C98.5789 49.635 100.079 50.2488 101.224 51.4765C102.388 52.7231 102.971 54.3684 102.971 56.4124C102.971 58.4564 102.388 60.0954 101.224 61.3294C100.085 62.5444 98.5853 63.1519 96.7248 63.1519C94.8707 63.1519 93.3677 62.5444 92.216 61.3294C91.0453 60.0891 90.46 58.4501 90.46 56.4124ZM92.3584 56.4029C92.3584 57.8457 92.7096 59.0386 93.412 59.9815C94.203 61.0319 95.3073 61.5572 96.7248 61.5572C98.1423 61.5572 99.2434 61.0319 100.028 59.9815C100.724 59.0512 101.072 57.8647 101.072 56.4219C101.072 54.9664 100.724 53.7673 100.028 52.8244C99.2434 51.7612 98.1423 51.2297 96.7248 51.2297C95.301 51.2297 94.1967 51.7612 93.412 52.8244C92.7096 53.7673 92.3584 54.9601 92.3584 56.4029Z"/>
        <path d="M105.619 49.7869H109.368C111.868 49.7869 113.479 50.5273 114.2 52.008C114.459 52.5523 114.589 53.1977 114.589 53.9444C114.589 54.6912 114.456 55.3303 114.19 55.8619C113.925 56.3934 113.567 56.8301 113.118 57.1718C112.245 57.8299 111.077 58.159 109.615 58.159H107.517V63H105.619V49.7869ZM109.245 56.6402C110.39 56.6402 111.238 56.4187 111.789 55.9758C112.339 55.5328 112.615 54.843 112.615 53.9065C112.615 52.6598 112.036 51.8562 110.878 51.4955C110.473 51.3689 109.982 51.3056 109.406 51.3056H107.517V56.6402H109.245Z"/>
    </symbol>

    <!-- Instagram -->
    <symbol id="instagram" viewBox="0 0 512 512">
        <g>
        <path d="M505,257c0,34.8-0.7,69.7,0.2,104.5c1.5,61.6-37.2,109.2-86.5,130.4c-19.8,8.5-40.6,13-62.1,13c-67.3,0.1-134.7,1-202-0.3
        c-50.7-1-92.4-22.2-122.3-64c-15.7-22-23.2-47-23.2-74.1c0-71.7,0-143.3,0-215c0-58.5,28.5-99.4,79.1-126C110.2,14,134.1,9.1,159,9
        c65.3,0,130.7-0.4,196,0.2c50.7,0.4,93,19.8,124.2,60.6c17.4,22.8,25.8,49,25.8,77.8C505,184,505,220.5,505,257z M46,257
        c0,36.7,0,73.3,0,110c0,16.4,3.8,31.8,12.3,45.7c22.3,36.5,56,54.3,97.8,55c67.1,1,134.3,0.4,201.5,0.2c16.5,0,32.5-3.4,47.4-10.5
        c40.6-19.4,63.3-50.3,63.1-96.7c-0.4-71-0.1-142-0.1-213c0-20.1-5.7-38.5-17.6-54.7c-23-31.1-54.8-46.4-92.8-46.8
        c-67-0.8-134-0.3-201-0.2c-14.3,0-28.1,2.9-41.5,7.9c-36.8,13.7-71,48.4-69.4,99.5C46.9,188,46,222.5,46,257z"/>
        <path d="M257.6,363c-64.5,0-116.5-51.4-116.6-115.4c-0.1-63,52.3-114.6,116.4-114.6c64.3-0.1,116.5,51.4,116.6,114.9
        C374,311.3,321.9,362.9,257.6,363z M257.6,326c43.9,0,79.5-35.1,79.4-78.3c-0.1-42.8-35.7-77.8-79.4-77.8
        c-43.9,0-79.7,34.9-79.7,78C178,291.1,213.7,326.1,257.6,326z"/>
        <path d="M387.5,98c13.5,0,24.5,11.5,24.5,25.6c-0.1,14.1-11.2,25.5-24.7,25.4c-13.3-0.1-24.2-11.5-24.2-25.3
        C363,109.6,374,98,387.5,98z"/>
        </g>
    </symbol>

    <!-- Facebook -->
    <symbol id="facebook" viewBox="0 0 512 512">
        <g>
            <path d="M258.8,507.2C120.4,507.8,6.6,392.6,9.9,251.9C13,117.9,124,7.2,262,8.7C398.7,10.2,511.8,124,508.1,264.9
            C504.6,398.3,394.5,507.9,258.8,507.2z M40.2,258.3C41.3,383.6,142.9,480.1,262.9,478c116.2-2.1,214.7-96.8,214.7-220
            c0-125.3-102.4-222.2-222.8-219.9C138.6,40.2,41,135.2,40.2,258.3z"/>
            <path d="M206.8,433.4c0-58.9,0-117.3,0-176.3c-13,0-25.6,0-38.5,0c0-20,0-39.4,0-59.4c1.7-0.1,3.4-0.3,5.2-0.3
            c9.3,0,18.7-0.2,28,0.1c4.1,0.1,5.5-1,5.4-5.2c-0.2-15.2-0.2-30.3-0.1-45.5c0.1-17.1,4.9-32.6,17.1-45c11.8-12,26.9-18.5,43.3-19.5
            c26.4-1.5,52.9-1.3,79.4-1.8c0.3,0,0.6,0.3,1.2,0.6c0,20.1,0,40.3,0,61c-1.9,0.1-3.7,0.2-5.4,0.2c-12,0-24,0-36,0
            c-12.1,0.1-19.2,7.3-19.2,19.2c0,11.3,0,22.7,0.1,34c0,0.3,0.2,0.6,0.5,1.7c19.8,0,39.8,0,60.8,0c-2.6,20.3-5,39.7-7.6,59.8
            c-18.1,0-35.8,0-54,0c0,59.2,0,117.8,0,176.6C260.1,433.4,233.9,433.4,206.8,433.4z"/>
        </g>
    </symbol>

    <!-- Phone -->
    <symbol id="phone" viewBox="0 0 1280.000000 1280.000000">
        <g transform="translate(0.000000,1280.000000) scale(0.100000,-0.100000)">
            <path d="M6145 12794 c-216 -13 -391 -28 -530 -45 -995 -122 -1927 -467 -2760
            -1022 -907 -604 -1648 -1433 -2146 -2402 -395 -769 -615 -1549 -690 -2450 -17
            -193 -17 -757 0 -950 75 -901 295 -1681 690 -2450 610 -1187 1579 -2156 2766
            -2766 769 -395 1549 -615 2450 -690 193 -17 757 -17 950 0 901 75 1681 295
            2450 690 1187 610 2156 1579 2766 2766 395 769 615 1549 690 2450 17 193 17
            757 0 950 -75 901 -295 1681 -690 2450 -610 1187 -1579 2156 -2766 2766 -753
            387 -1531 610 -2390 684 -164 15 -666 27 -790 19z m739 -779 c1310 -112 2519
            -671 3464 -1599 980 -963 1561 -2210 1673 -3591 15 -193 15 -657 0 -850 -110
            -1350 -664 -2567 -1605 -3523 -965 -981 -2206 -1559 -3591 -1673 -193 -16
            -657 -16 -850 0 -1386 114 -2628 692 -3591 1672 -943 961 -1493 2167 -1605
            3524 -16 193 -16 657 0 850 115 1388 693 2628 1672 3591 878 862 1988 1408
            3189 1568 416 55 832 66 1244 31z"/>
            <path d="M5060 10738 c-54 -15 -679 -379 -716 -417 -83 -84 -102 -207 -50
            -309 54 -105 1149 -1998 1175 -2032 58 -73 186 -116 276 -91 46 12 662 365
            715 409 68 57 105 179 81 267 -6 22 -274 497 -596 1055 -474 822 -594 1023
            -631 1057 -68 64 -164 87 -254 61z"/>
            <path d="M3942 9867 c-214 -130 -321 -208 -435 -317 -334 -319 -423 -636 -366
            -1295 82 -942 549 -2201 1249 -3365 657 -1092 1446 -1996 2175 -2492 375 -255
            608 -343 910 -343 202 0 370 40 606 145 110 50 365 185 374 199 3 6 -1137
            1992 -1198 2088 -6 10 -17 8 -47 -7 -69 -35 -183 -69 -272 -80 -327 -40 -714
            148 -1073 522 -444 462 -796 1143 -905 1753 -81 448 -20 809 175 1038 33 39
            144 132 166 139 8 3 -217 401 -590 1049 -332 574 -606 1047 -610 1051 -4 5
            -75 -34 -159 -85z"/>
            <path d="M8220 5330 c-55 -7 -46 -3 -413 -214 -164 -94 -314 -186 -333 -204
            -72 -69 -102 -185 -72 -273 17 -50 1155 -2026 1197 -2078 71 -90 212 -117 326
            -62 86 41 614 347 655 380 56 45 90 120 90 202 0 37 -5 81 -12 96 -34 80
            -1175 2043 -1206 2075 -61 64 -141 91 -232 78z"/>
        </g>
    </symbol>

    <!-- Instagram footer -->
    <symbol id="instagram-footer" viewBox="0 0 640 640" fill-rule="evenodd" clip-rule="evenodd">
        <g>
            <path d="M184.715 2.752h270.582C556.908 2.752 640 84.816 640 185.069v269.85c0 100.277-83.092 182.317-184.703 182.317H184.715C83.104 637.236 0 555.196 0 454.919v-269.85C0 84.816 83.103 2.752 184.715 2.752zm133.561 145.939c98.741 0 178.868 80.127 178.868 178.868 0 98.753-80.127 178.868-178.868 178.868-98.765 0-178.88-80.115-178.88-178.868 0-98.741 80.115-178.868 178.88-178.868zm0 60.414c65.387 0 118.454 53.056 118.454 118.454s-53.068 118.466-118.454 118.466c-65.41 0-118.466-53.067-118.466-118.466 0-65.398 53.056-118.454 118.466-118.454zM491.321 123.9c16.04 0 29.044 13.004 29.044 29.032 0 16.04-13.004 29.044-29.044 29.044-16.028 0-29.032-13.004-29.032-29.044 0-16.028 13.004-29.032 29.032-29.032zM206.825 54.58H433.21c85.005 0 154.526 69.178 154.526 153.712V435.81c0 84.532-69.52 153.699-154.526 153.699H206.825c-85.005 0-154.537-69.167-154.537-153.7V208.29c0-84.532 69.532-153.71 154.537-153.71z"/>
        </g>
    </symbol>

    <!-- Mail footer -->
    <symbol id="mail-footer" viewBox="0 0 122.88 88.86">
        <g>
            <path  d="M7.05,0H115.83a7.07,7.07,0,0,1,7,7.05V81.81a7,7,0,0,1-1.22,4,2.78,2.78,0,0,1-.66,1,2.62,2.62,0,0,1-.66.46,7,7,0,0,1-4.51,1.65H7.05a7.07,7.07,0,0,1-7-7V7.05A7.07,7.07,0,0,1,7.05,0Zm-.3,78.84L43.53,40.62,6.75,9.54v69.3ZM49.07,45.39,9.77,83.45h103L75.22,45.39l-11,9.21h0a2.7,2.7,0,0,1-3.45,0L49.07,45.39Zm31.6-4.84,35.46,38.6V9.2L80.67,40.55ZM10.21,5.41,62.39,47.7,112.27,5.41Z"/>
        </g>
    </symbol>


    <!-- Phone footer -->
    <symbol id="phone-footer" viewBox="0 0 1000 1000">
        <g>
            <path d="M730.5,990c-63.2,0-144.9-42.1-202.2-77.5c-76.8-47.3-159.5-112.8-233-184.3l-0.3-0.3l-23.3-23.3c-71.5-73.4-137-156.2-184.3-233C52.1,414.3,10,332.7,10,269.5c0-67.7,48.4-139.5,69.2-167.2C95.4,80.6,152.1,10,200.3,10c19.8,0,41.1,12.9,69.1,42c24.8,25.7,48.5,57.6,64.1,79.9c20.9,29.9,40.3,61.2,54.5,88.1c23,43.6,25.7,62.3,25.7,72.6c0,20.7-10.8,38.7-32.2,53.4c-14.1,9.7-30.9,17-47.3,24.1c-11,4.8-28.6,12.4-35.3,17.7c2.3,9.9,12.6,33.8,40.2,74.4c25.7,37.8,59,78.8,89.1,109.6c30.9,30.1,71.8,63.4,109.6,89.1c40.6,27.6,64.5,37.8,74.4,40.2c5.3-6.7,12.9-24.3,17.7-35.3c7.1-16.3,14.4-33.2,24.1-47.3c14.7-21.4,32.7-32.2,53.4-32.2c10.3,0,29,2.7,72.6,25.7c26.9,14.2,58.2,33.6,88.1,54.5c22.3,15.6,54.2,39.3,79.9,64.1c29,28,42,49.3,42,69.1c0,48.2-70.6,104.9-92.3,121.1C870,941.6,798.2,990,730.5,990L730.5,990z M335.9,686.9c70.4,68.6,149.6,131.3,222.8,176.4c71,43.8,133.6,68.9,171.8,68.9c34,0,82.5-20.8,129.8-55.6c20.7-15.3,39.5-32.3,53.1-47.8c12.7-14.6,17.3-24.2,18.5-28c-4.9-10.5-34-43.4-101.9-90.3c-26.6-18.4-54.2-35.3-77.6-47.6c-29.4-15.4-41.6-18.1-44.4-18.5c-1.1,0.7-4.3,3.4-9.1,11.6c-5.4,9.1-10.7,21.2-15.7,32.9c-6.2,14.4-12.7,29.3-20.6,41.3c-12.8,19.5-28.6,29.4-46.9,29.5c-0.3,0-0.7,0-1,0c-8.9-0.2-35.9-0.8-109.3-50.8c-40.5-27.6-84.5-63.4-117.7-95.8l-0.5-0.5c-32.4-33.2-68.2-77.2-95.8-117.7c-50-73.4-50.6-100.5-50.8-109.3c-0.4-18.6,9.4-34.6,29.1-47.7c12.1-8,27.1-14.5,41.6-20.8c11.7-5.1,23.8-10.3,32.9-15.7c8.1-4.9,10.8-8.1,11.6-9.1c-0.4-2.8-3.1-15-18.5-44.4c-12.3-23.4-29.2-50.9-47.6-77.6c-46.9-67.9-79.8-97-90.3-101.9c-3.9,1.2-13.4,5.8-28,18.5c-15.6,13.5-32.6,32.4-47.8,53.1c-34.8,47.2-55.6,95.7-55.6,129.7c0,38.2,25.1,100.8,68.9,171.8c45.1,73.2,107.8,152.4,176.4,222.8L335.9,686.9L335.9,686.9z"/>
        </g>
    </symbol>

</svg>

