<svg width="115" height="64" viewBox="0 0 115 64" fill="none" xmlns="http://www.w3.org/2000/svg">
<g style="mix-blend-mode:screen">
<path d="M37.5092 0.0909119V35H29.6001L16.9865 16.6591H16.782V35H7.30469V0.0909119H15.3501L27.7592 18.3636H28.032V0.0909119H37.5092Z"/>
<path d="M55.424 35H41.9922V0.0909119H55.2876C58.8786 0.0909119 61.9808 0.789772 64.5945 2.1875C67.2195 3.57386 69.2422 5.57386 70.6626 8.1875C72.0945 10.7898 72.8104 13.9091 72.8104 17.5455C72.8104 21.1818 72.1001 24.3068 70.6797 26.9205C69.2592 29.5227 67.2479 31.5227 64.6456 32.9205C62.0433 34.3068 58.9695 35 55.424 35ZM51.4695 26.9545H55.0831C56.8104 26.9545 58.282 26.6761 59.4979 26.1193C60.7251 25.5625 61.657 24.6023 62.2933 23.2386C62.941 21.875 63.2649 19.9773 63.2649 17.5455C63.2649 15.1136 62.9354 13.2159 62.2763 11.8523C61.6285 10.4886 60.674 9.52841 59.4126 8.97159C58.1626 8.41477 56.6285 8.13636 54.8104 8.13636H51.4695V26.9545Z"/>
<path d="M84.0604 35H73.8331L85.3558 0.0909119H98.3104L109.833 35H99.6058L91.9695 9.70454H91.6967L84.0604 35ZM82.1513 21.2273H101.379V28.3182H82.1513V21.2273Z"/>
</g>
<path d="M7.63113 62.0793C7.18184 62.3957 6.60598 62.6456 5.90355 62.8291C5.20113 63.0063 4.34051 63.0949 3.32168 63.0949C2.30918 63.0949 1.28719 63.0348 0.255703 62.9146V61.0731C1.17961 61.2819 2.10984 61.3863 3.04641 61.3863C3.98297 61.3863 4.68539 61.3357 5.15367 61.2344C5.62195 61.1269 5.99848 60.9877 6.28324 60.8168C6.80848 60.5004 7.07109 60.0891 7.07109 59.5828C7.07109 59.1905 6.96984 58.8867 6.76734 58.6716C6.44461 58.3362 5.97949 58.0293 5.37199 57.7508L2.94199 56.6402C2.10668 56.2479 1.515 55.884 1.16695 55.5486C0.420234 54.8272 0.046875 53.9919 0.046875 53.0427C0.046875 52.0682 0.470859 51.2803 1.31883 50.6791C2.24906 50.021 3.57164 49.6919 5.28656 49.6919C6.39398 49.6919 7.40648 49.7362 8.32406 49.8248V51.6378C7.5457 51.4607 6.67559 51.3721 5.71371 51.3721C4.75816 51.3721 4.06207 51.4227 3.62543 51.5239C3.19512 51.6189 2.85656 51.7423 2.60977 51.8941C2.16047 52.1726 1.93582 52.5396 1.93582 52.9952C1.93582 53.4382 2.0782 53.8052 2.36297 54.0963C2.61609 54.3431 3.07805 54.6279 3.74883 54.9506L6.24527 56.1371C7.07426 56.5295 7.65328 56.8997 7.98234 57.2477C8.31773 57.5958 8.56453 57.947 8.72273 58.3014C8.88094 58.6494 8.96004 59.0702 8.96004 59.5638C8.96004 60.0511 8.85246 60.513 8.6373 60.9497C8.42215 61.38 8.08676 61.7565 7.63113 62.0793Z"/>
<path d="M14.6933 51.4575H10.7161V49.7869H20.569V51.4575H16.5918V63H14.6933V51.4575Z"/>
<path d="M22.382 56.4124C22.382 55.3809 22.537 54.4475 22.8471 53.6122C23.1572 52.7769 23.5875 52.065 24.138 51.4765C25.2961 50.2488 26.799 49.635 28.6468 49.635C30.501 49.635 32.0007 50.2488 33.1461 51.4765C34.3105 52.7231 34.8927 54.3684 34.8927 56.4124C34.8927 58.4564 34.3105 60.0954 33.1461 61.3294C32.0071 62.5444 30.5073 63.1519 28.6468 63.1519C26.7927 63.1519 25.2898 62.5444 24.138 61.3294C22.9673 60.0891 22.382 58.4501 22.382 56.4124ZM24.2804 56.4029C24.2804 57.8457 24.6316 59.0386 25.3341 59.9815C26.1251 61.0319 27.2293 61.5572 28.6468 61.5572C30.0643 61.5572 31.1654 61.0319 31.9501 59.9815C32.6462 59.0512 32.9943 57.8647 32.9943 56.4219C32.9943 54.9664 32.6462 53.7673 31.9501 52.8244C31.1654 51.7612 30.0643 51.2297 28.6468 51.2297C27.223 51.2297 26.1188 51.7612 25.3341 52.8244C24.6316 53.7673 24.2804 54.9601 24.2804 56.4029Z"/>
<path d="M46.3688 62.9241C45.7423 63.038 44.8975 63.0949 43.8343 63.0949C42.7775 63.0949 41.822 62.9494 40.9677 62.6583C40.1197 62.3672 39.3888 61.9369 38.775 61.3673C37.4588 60.146 36.8006 58.4437 36.8006 56.2605C36.8006 54.8367 37.1392 53.6027 37.8163 52.5586C38.7339 51.1474 40.1419 50.2488 42.0403 49.8628C42.6225 49.7489 43.3154 49.6919 44.1191 49.6919C44.9291 49.6919 45.5777 49.7362 46.065 49.8248V51.6378C45.622 51.4986 44.9354 51.429 44.0052 51.429C43.0813 51.429 42.2966 51.5429 41.6511 51.7707C41.0057 51.9985 40.4709 52.3244 40.047 52.7484C39.199 53.5774 38.775 54.7481 38.775 56.2605C38.775 57.7856 39.1927 58.9943 40.028 59.8866C40.9329 60.8484 42.2333 61.3294 43.9293 61.3294C44.9228 61.3294 45.7359 61.2534 46.3688 61.1016V62.9241Z"/>
<path d="M48.7418 49.7869H50.6307V55.9758L55.7186 49.7869H58.0916L52.6716 56.1466L58.5093 63H56.1552L50.6307 56.4124V63H48.7418V49.7869Z"/>
<path d="M74.0954 62.0793C73.6461 62.3957 73.0703 62.6456 72.3678 62.8291C71.6654 63.0063 70.8048 63.0949 69.786 63.0949C68.7735 63.0949 67.7515 63.0348 66.72 62.9146V61.0731C67.6439 61.2819 68.5741 61.3863 69.5107 61.3863C70.4473 61.3863 71.1497 61.3357 71.618 61.2344C72.0862 61.1269 72.4628 60.9877 72.7475 60.8168C73.2728 60.5004 73.5354 60.0891 73.5354 59.5828C73.5354 59.1905 73.4341 58.8867 73.2316 58.6716C72.9089 58.3362 72.4438 58.0293 71.8363 57.7508L69.4063 56.6402C68.571 56.2479 67.9793 55.884 67.6312 55.5486C66.8845 54.8272 66.5112 53.9919 66.5112 53.0427C66.5112 52.0682 66.9352 51.2803 67.7831 50.6791C68.7134 50.021 70.0359 49.6919 71.7509 49.6919C72.8583 49.6919 73.8708 49.7362 74.7884 49.8248V51.6378C74.01 51.4607 73.1399 51.3721 72.178 51.3721C71.2225 51.3721 70.5264 51.4227 70.0897 51.5239C69.6594 51.6189 69.3209 51.7423 69.0741 51.8941C68.6248 52.1726 68.4001 52.5396 68.4001 52.9952C68.4001 53.4382 68.5425 53.8052 68.8273 54.0963C69.0804 54.3431 69.5423 54.6279 70.2131 54.9506L72.7096 56.1371C73.5385 56.5295 74.1176 56.8997 74.4466 57.2477C74.782 57.5958 75.0288 57.947 75.187 58.3014C75.3452 58.6494 75.4243 59.0702 75.4243 59.5638C75.4243 60.0511 75.3168 60.513 75.1016 60.9497C74.8864 61.38 74.5511 61.7565 74.0954 62.0793Z"/>
<path d="M77.9208 49.7869H79.8192V55.0076H86.0651V49.7869H87.9635V63H86.0651V56.6782H79.8192V63H77.9208V49.7869Z"/>
<path d="M90.46 56.4124C90.46 55.3809 90.615 54.4475 90.9251 53.6122C91.2351 52.7769 91.6655 52.065 92.216 51.4765C93.3741 50.2488 94.877 49.635 96.7248 49.635C98.5789 49.635 100.079 50.2488 101.224 51.4765C102.388 52.7231 102.971 54.3684 102.971 56.4124C102.971 58.4564 102.388 60.0954 101.224 61.3294C100.085 62.5444 98.5853 63.1519 96.7248 63.1519C94.8707 63.1519 93.3677 62.5444 92.216 61.3294C91.0453 60.0891 90.46 58.4501 90.46 56.4124ZM92.3584 56.4029C92.3584 57.8457 92.7096 59.0386 93.412 59.9815C94.203 61.0319 95.3073 61.5572 96.7248 61.5572C98.1423 61.5572 99.2434 61.0319 100.028 59.9815C100.724 59.0512 101.072 57.8647 101.072 56.4219C101.072 54.9664 100.724 53.7673 100.028 52.8244C99.2434 51.7612 98.1423 51.2297 96.7248 51.2297C95.301 51.2297 94.1967 51.7612 93.412 52.8244C92.7096 53.7673 92.3584 54.9601 92.3584 56.4029Z"/>
<path d="M105.619 49.7869H109.368C111.868 49.7869 113.479 50.5273 114.2 52.008C114.459 52.5523 114.589 53.1977 114.589 53.9444C114.589 54.6912 114.456 55.3303 114.19 55.8619C113.925 56.3934 113.567 56.8301 113.118 57.1718C112.245 57.8299 111.077 58.159 109.615 58.159H107.517V63H105.619V49.7869ZM109.245 56.6402C110.39 56.6402 111.238 56.4187 111.789 55.9758C112.339 55.5328 112.615 54.843 112.615 53.9065C112.615 52.6598 112.036 51.8562 110.878 51.4955C110.473 51.3689 109.982 51.3056 109.406 51.3056H107.517V56.6402H109.245Z"/>
</svg>
