<?xml version="1.0" standalone="no"?>
<!DOCTYPE svg PUBLIC "-//W3C//DTD SVG 20010904//EN"
 "http://www.w3.org/TR/2001/REC-SVG-20010904/DTD/svg10.dtd">
<svg version="1.0" xmlns="http://www.w3.org/2000/svg"
 width="684.000000pt" height="684.000000pt" viewBox="0 0 684.000000 684.000000"
 preserveAspectRatio="xMidYMid meet">
<metadata>
Created by potrace 1.14, written by Peter Selinger 2001-2017
</metadata>
<g transform="translate(0.000000,684.000000) scale(0.100000,-0.100000)"
fill="#000000" stroke="none">
<path d="M0 3420 l0 -2990 3420 0 3420 0 0 2990 0 2990 -3420 0 -3420 0 0
-2990z m933 898 c57 -84 207 -304 332 -488 312 -459 316 -464 326 -448 5 7 9
255 9 551 l0 537 290 0 290 0 0 -1060 0 -1060 -238 0 -237 0 -235 342 c-389
567 -532 768 -541 762 -5 -3 -9 -249 -9 -555 l0 -549 -285 0 -285 0 0 1060 0
1060 240 0 239 0 104 -152z m2418 137 c172 -5 255 -22 385 -76 154 -64 313
-192 404 -324 48 -70 115 -220 140 -313 27 -107 40 -304 29 -470 -26 -394
-238 -693 -599 -843 -138 -58 -187 -62 -947 -74 l-303 -4 0 1059 0 1060 368
-5 c202 -3 437 -7 523 -10z m2867 -1037 c190 -576 343 -1051 339 -1054 -3 -4
-140 -9 -304 -12 l-298 -4 -60 198 -60 199 -355 3 -355 2 -60 -201 -60 -202
-299 6 c-164 3 -300 8 -303 11 -4 3 226 707 608 1864 l81 242 390 -2 390 -3
346 -1047z"/>
<path d="M3020 3409 l0 -571 188 5 c250 7 325 29 411 122 90 98 125 221 125
445 0 288 -67 440 -229 519 -77 38 -168 51 -362 51 l-133 0 0 -571z"/>
<path d="M5431 3758 c-64 -196 -161 -525 -161 -547 0 -21 4 -21 205 -21 181 0
206 2 212 16 9 25 -190 674 -207 674 -4 0 -26 -55 -49 -122z"/>
</g>
</svg>
