<?xml version="1.0" standalone="no"?>
<!DOCTYPE svg PUBLIC "-//W3C//DTD SVG 20010904//EN"
 "http://www.w3.org/TR/2001/REC-SVG-20010904/DTD/svg10.dtd">
<svg version="1.0" xmlns="http://www.w3.org/2000/svg"
 width="513.000000pt" height="513.000000pt" viewBox="0 0 513.000000 513.000000"
 preserveAspectRatio="xMidYMid meet">
<metadata>
Created by potrace 1.14, written by Peter Selinger 2001-2017
</metadata>
<g transform="translate(0.000000,513.000000) scale(0.100000,-0.100000)"
fill="#000000" stroke="none">
<path d="M0 2570 l0 -2240 2565 0 2565 0 0 2240 0 2240 -2565 0 -2565 0 0
-2240z m899 388 c151 -222 280 -410 287 -418 12 -12 14 48 14 403 l0 417 220
0 220 0 0 -795 0 -795 -182 0 -183 0 -285 415 c-157 228 -288 415 -292 415 -5
0 -8 -187 -8 -415 l0 -415 -215 0 -215 0 0 795 0 795 183 0 183 0 273 -402z
m1796 374 c285 -77 469 -274 529 -565 20 -96 21 -300 2 -400 -45 -235 -179
-415 -378 -511 -158 -76 -180 -79 -620 -83 l-388 -4 0 796 0 796 388 -3 c359
-4 393 -6 467 -26z m1968 -752 c142 -429 260 -787 263 -795 5 -13 -23 -15
-228 -15 l-234 0 -45 148 -45 147 -264 0 -264 0 -45 -147 -45 -148 -234 0
c-128 0 -231 3 -229 8 2 4 120 361 263 795 l259 787 295 0 296 0 257 -780z"/>
<path d="M2270 2566 l0 -426 129 0 c212 0 300 40 361 164 65 132 65 390 0 523
-34 68 -68 100 -146 135 -42 19 -71 23 -196 26 l-148 4 0 -426z"/>
<path d="M4030 2678 c-40 -134 -75 -251 -78 -260 -4 -17 8 -18 158 -18 150 0
162 1 158 18 -34 124 -153 502 -158 502 -4 0 -40 -109 -80 -242z"/>
</g>
</svg>
