<svg xmlns="http://www.w3.org/2000/svg" height="800" width="1200" fill="#0F4E9E" viewBox="-24 -11.275 208 67.65"><path d="M8.8.6c0-.4-.2-.6-.6-.6H.6C.2 0 0 .2 0 .7l.1 36.6c0 6.6 2.5 7.7 8.3 7.7.2 0 .3 0 .5-.2.1-.1.1-.5.1-.5zM15.4 7c-.4 0-.6-.2-.6-.6V.7c0-.5.2-.7.6-.7H23c.4 0 .6.2.6.6v5.7c.1.5-.1.7-.6.7zm.1 38c-.4 0-.6-.2-.6-.6V14c0-.4.2-.6.6-.6h7.6c.4 0 .6.2.6.6v30.4c0 .5-.2.6-.6.6zm16.4 0c-.5 0-.6-.2-.6-.6v-24c0-.3-.1-.4-.4-.4H29c-.4 0-.6-.2-.6-.6v-5.3c0-.4.2-.6.6-.6h1.9c.2 0 .4-.1.4-.4v-2.2C31.2 3.2 34.7 0 42 0h4.8c.4 0 .6.2.6.6v5.8c0 .5-.2.6-.6.6h-3.3c-2.8 0-3.5.7-3.5 3.3v2.5c0 .3.1.4.4.4h4c.4 0 .6.2.6.6v5.3c0 .5-.2.6-.6.6h-4c-.3 0-.4.1-.4.4v24c0 .4-.2.6-.6.6zm16.7-8.7c-.7-2.2-1-4.6-1-7.3 0-2.9.2-5.3.9-7.4 1.8-5.5 6.6-8.7 13.2-8.7 6.7 0 11.5 3.2 13.3 8.6.7 2.2.8 5.3.8 9.4 0 .4-.3.6-.7.6H56.9c-.3 0-.4.1-.4.4.1.6 0 1.2.2 1.7.8 2.7 3 4.1 6.3 4.1 2.5 0 4.4-.8 5.6-1.6 1.1-.8 1.1-1.1 1.7-.6l4.7 3.4c.4.3.4.6.1.9-3.2 3.4-7.5 5.2-13 5.2-6.8 0-11.7-3.2-13.5-8.7zm18.2-10.6c.3 0 .4-.1.4-.4 0-.8-.1-1.6-.3-2.3-.8-2.2-2.3-3.4-5-3.4-2.4 0-4.5 1.2-5.3 3.4-.2.7-.3 1.5-.3 2.3 0 .3.1.4.4.4zm13.1 10.6c-.7-1.8-.9-4.3-.9-7.3s.2-5.5.9-7.4c1.8-5.7 6.6-8.7 13.2-8.7 5.1 0 9.3 2.3 11.6 5.8.2.3.2.6-.1.9L99 23.2c-.4.3-.7.2-.9-.1-1.3-1.8-2.9-2.7-4.9-2.7-2.5 0-4.1 1.1-4.8 3.3-.4 1.1-.6 2.9-.6 5.3s.2 4.2.6 5.3c.7 2.2 2.3 3.3 4.8 3.3 2 0 3.6-.9 4.9-2.7.2-.3.6-.4.9-.1l5.5 3.6c.3.2.3.6.1.9-2.3 3.5-6.5 5.8-11.6 5.8-6.5-.1-11.3-3.1-13.1-8.8zm26.7 0c-.7-2.2-1-4.6-1-7.3 0-2.9.2-5.3.9-7.4 1.8-5.5 6.6-8.7 13.2-8.7 6.7 0 11.5 3.2 13.3 8.6.7 2.2.8 5.3.8 9.4 0 .4-.3.6-.7.6h-18.2c-.3 0-.4.1-.4.4.1.6 0 1.2.2 1.7.8 2.7 3 4.1 6.3 4.1 2.5 0 4.4-.8 5.6-1.6 1.1-.8 1.1-1.1 1.7-.6l4.7 3.4c.4.3.4.6.1.9-3.2 3.4-7.5 5.2-13 5.2-6.8 0-11.7-3.2-13.5-8.7zm18.2-10.6c.3 0 .4-.1.4-.4 0-.8-.1-1.6-.3-2.3-.8-2.2-2.3-3.4-5-3.4-2.4 0-4.5 1.2-5.3 3.4-.2.7-.3 1.5-.3 2.3 0 .3.1.4.4.4zm22-25.1c0-.4-.2-.6-.6-.6h-7.6c-.4 0-.6.2-.6.7l.1 36.6c0 6.6 2.5 7.7 8.3 7.7.2 0 .3 0 .5-.2.1-.1.1-.5.1-.5zm13 0c0-.4-.2-.6-.6-.6h-7.6c-.4 0-.6.2-.6.7l.1 36.6c0 6.6 2.5 7.7 8.3 7.7.2 0 .3 0 .5-.2.1-.1.1-.5.1-.5z"/></svg>